solid ascii
  facet normal -0.000000e+000 1.000000e+000 0.000000e+000
    outer loop
      vertex   -1.280000e+002 4.600000e+001 -1.000000e+000
      vertex   -1.280000e+002 4.600000e+001 1.000000e+000
      vertex   -1.200000e+002 4.600000e+001 -1.000000e+000
    endloop
  endfacet
  facet normal 0.000000e+000 1.000000e+000 -0.000000e+000
    outer loop
      vertex   -1.200000e+002 4.600000e+001 -1.000000e+000
      vertex   -1.280000e+002 4.600000e+001 1.000000e+000
      vertex   -1.200000e+002 4.600000e+001 1.000000e+000
    endloop
  endfacet
  facet normal 0.000000e+000 -1.000000e+000 0.000000e+000
    outer loop
      vertex   -1.280000e+002 -4.800000e+001 1.000000e+000
      vertex   -1.280000e+002 -4.800000e+001 -1.000000e+000
      vertex   -1.200000e+002 -4.800000e+001 1.000000e+000
    endloop
  endfacet
  facet normal 0.000000e+000 -1.000000e+000 -0.000000e+000
    outer loop
      vertex   -1.200000e+002 -4.800000e+001 1.000000e+000
      vertex   -1.280000e+002 -4.800000e+001 -1.000000e+000
      vertex   -1.200000e+002 -4.800000e+001 -1.000000e+000
    endloop
  endfacet
  facet normal -1.000000e+000 -0.000000e+000 -0.000000e+000
    outer loop
      vertex   -1.280000e+002 4.600000e+001 1.000000e+000
      vertex   -1.280000e+002 4.600000e+001 -1.000000e+000
      vertex   -1.280000e+002 -4.800000e+001 1.000000e+000
    endloop
  endfacet
  facet normal -1.000000e+000 -0.000000e+000 -0.000000e+000
    outer loop
      vertex   -1.280000e+002 -4.800000e+001 1.000000e+000
      vertex   -1.280000e+002 4.600000e+001 -1.000000e+000
      vertex   -1.280000e+002 -4.800000e+001 -1.000000e+000
    endloop
  endfacet
  facet normal -1.000000e+000 0.000000e+000 0.000000e+000
    outer loop
      vertex   -1.200000e+002 4.600000e+001 -1.000000e+000
      vertex   -1.200000e+002 4.600000e+001 1.000000e+000
      vertex   -1.200000e+002 5.150000e+001 -1.000000e+000
    endloop
  endfacet
  facet normal -1.000000e+000 0.000000e+000 0.000000e+000
    outer loop
      vertex   -1.200000e+002 5.150000e+001 -1.000000e+000
      vertex   -1.200000e+002 4.600000e+001 1.000000e+000
      vertex   -1.200000e+002 5.150000e+001 1.000000e+000
    endloop
  endfacet
  facet normal -1.000000e+000 -0.000000e+000 -0.000000e+000
    outer loop
      vertex   -1.200000e+002 -4.800000e+001 1.000000e+000
      vertex   -1.200000e+002 -4.800000e+001 -1.000000e+000
      vertex   -1.200000e+002 -5.350000e+001 1.000000e+000
    endloop
  endfacet
  facet normal -1.000000e+000 -0.000000e+000 -0.000000e+000
    outer loop
      vertex   -1.200000e+002 -5.350000e+001 1.000000e+000
      vertex   -1.200000e+002 -4.800000e+001 -1.000000e+000
      vertex   -1.200000e+002 -5.350000e+001 -1.000000e+000
    endloop
  endfacet
  facet normal 9.858790e-001 -1.674595e-001 0.000000e+000
    outer loop
      vertex   -1.510950e+000 -1.283556e-001 -1.000000e+000
      vertex   -1.510950e+000 -1.283556e-001 1.000000e+000
      vertex   -1.569653e+000 -4.739556e-001 -1.000000e+000
    endloop
  endfacet
  facet normal 9.858790e-001 -1.674595e-001 8.907433e-017
    outer loop
      vertex   -1.569653e+000 -4.739556e-001 -1.000000e+000
      vertex   -1.510950e+000 -1.283556e-001 1.000000e+000
      vertex   -1.569653e+000 -4.739556e-001 1.000000e+000
    endloop
  endfacet
  facet normal 8.675097e-001 -4.974203e-001 4.108817e-017
    outer loop
      vertex   -1.744024e+000 -7.780613e-001 1.000000e+000
      vertex   -1.569653e+000 -4.739556e-001 -1.000000e+000
      vertex   -1.569653e+000 -4.739556e-001 1.000000e+000
    endloop
  endfacet
  facet normal 8.675097e-001 -4.974203e-001 6.870054e-017
    outer loop
      vertex   -1.744024e+000 -7.780613e-001 1.000000e+000
      vertex   -1.744024e+000 -7.780613e-001 -1.000000e+000
      vertex   -1.569653e+000 -4.739556e-001 -1.000000e+000
    endloop
  endfacet
  facet normal 6.425361e-001 -7.662554e-001 2.969144e-017
    outer loop
      vertex   -1.744024e+000 -7.780613e-001 1.000000e+000
      vertex   -2.012635e+000 -1.003302e+000 -1.000000e+000
      vertex   -1.744024e+000 -7.780613e-001 -1.000000e+000
    endloop
  endfacet
  facet normal 6.425361e-001 -7.662554e-001 0.000000e+000
    outer loop
      vertex   -1.744024e+000 -7.780613e-001 1.000000e+000
      vertex   -2.012635e+000 -1.003302e+000 1.000000e+000
      vertex   -2.012635e+000 -1.003302e+000 -1.000000e+000
    endloop
  endfacet
  facet normal 4.982838e-001 -8.670140e-001 0.000000e+000
    outer loop
      vertex   -2.012635e+000 -1.003302e+000 -1.000000e+000
      vertex   -2.012635e+000 -1.003302e+000 1.000000e+000
      vertex   -9.807770e+001 -5.621310e+001 -1.000000e+000
    endloop
  endfacet
  facet normal 4.982838e-001 -8.670140e-001 0.000000e+000
    outer loop
      vertex   -9.807770e+001 -5.621310e+001 -1.000000e+000
      vertex   -2.012635e+000 -1.003302e+000 1.000000e+000
      vertex   -9.807770e+001 -5.621310e+001 1.000000e+000
    endloop
  endfacet
  facet normal 0.000000e+000 -0.000000e+000 1.000000e+000
    outer loop
      vertex   -1.744024e+000 -7.780613e-001 1.000000e+000
      vertex   -1.569653e+000 -4.739556e-001 1.000000e+000
      vertex   -2.012635e+000 -1.003302e+000 1.000000e+000
    endloop
  endfacet
  facet normal 0.000000e+000 0.000000e+000 1.000000e+000
    outer loop
      vertex   -2.012635e+000 -1.003302e+000 1.000000e+000
      vertex   -1.569653e+000 -4.739556e-001 1.000000e+000
      vertex   -1.510950e+000 -1.283556e-001 1.000000e+000
    endloop
  endfacet
  facet normal -0.000000e+000 -0.000000e+000 1.000000e+000
    outer loop
      vertex   -2.578304e+000 3.510499e+001 1.000000e+000
      vertex   -1.510950e+000 -1.283556e-001 1.000000e+000
      vertex   -1.782757e+000 3.413404e+001 1.000000e+000
    endloop
  endfacet
  facet normal 0.000000e+000 0.000000e+000 1.000000e+000
    outer loop
      vertex   -1.886790e+000 3.457029e+001 1.000000e+000
      vertex   -2.578304e+000 3.510499e+001 1.000000e+000
      vertex   -1.782757e+000 3.413404e+001 1.000000e+000
    endloop
  endfacet
  facet normal 0.000000e+000 0.000000e+000 1.000000e+000
    outer loop
      vertex   -1.886790e+000 3.457029e+001 1.000000e+000
      vertex   -2.171029e+000 3.491720e+001 1.000000e+000
      vertex   -2.578304e+000 3.510499e+001 1.000000e+000
    endloop
  endfacet
  facet normal 0.000000e+000 -0.000000e+000 1.000000e+000
    outer loop
      vertex   -2.012635e+000 -1.003302e+000 1.000000e+000
      vertex   -1.510950e+000 -1.283556e-001 1.000000e+000
      vertex   -2.578304e+000 3.510499e+001 1.000000e+000
    endloop
  endfacet
  facet normal -0.000000e+000 -0.000000e+000 1.000000e+000
    outer loop
      vertex   -1.000760e+002 5.263397e+001 1.000000e+000
      vertex   -2.578304e+000 3.510499e+001 1.000000e+000
      vertex   -9.970996e+001 5.300000e+001 1.000000e+000
    endloop
  endfacet
  facet normal -0.000000e+000 -0.000000e+000 1.000000e+000
    outer loop
      vertex   -1.000760e+002 5.263397e+001 1.000000e+000
      vertex   -2.012635e+000 -1.003302e+000 1.000000e+000
      vertex   -2.578304e+000 3.510499e+001 1.000000e+000
    endloop
  endfacet
  facet normal -0.000000e+000 0.000000e+000 1.000000e+000
    outer loop
      vertex   -1.000760e+002 5.263397e+001 1.000000e+000
      vertex   -1.000925e+002 -5.462142e+001 1.000000e+000
      vertex   -2.012635e+000 -1.003302e+000 1.000000e+000
    endloop
  endfacet
  facet normal 0.000000e+000 0.000000e+000 1.000000e+000
    outer loop
      vertex   -1.000760e+002 5.263397e+001 1.000000e+000
      vertex   -1.005760e+002 5.250000e+001 1.000000e+000
      vertex   -1.000925e+002 -5.462142e+001 1.000000e+000
    endloop
  endfacet
  facet normal 0.000000e+000 0.000000e+000 1.000000e+000
    outer loop
      vertex   -1.000925e+002 -5.462142e+001 1.000000e+000
      vertex   -1.005760e+002 5.250000e+001 1.000000e+000
      vertex   -1.005701e+002 -5.450000e+001 1.000000e+000
    endloop
  endfacet
  facet normal 9.144989e-017 5.069121e-021 1.000000e+000
    outer loop
      vertex   -1.005701e+002 -5.450000e+001 1.000000e+000
      vertex   -1.005760e+002 5.250000e+001 1.000000e+000
      vertex   -1.200000e+002 4.600000e+001 1.000000e+000
    endloop
  endfacet
  facet normal 0.000000e+000 -0.000000e+000 1.000000e+000
    outer loop
      vertex   -1.200000e+002 -4.800000e+001 1.000000e+000
      vertex   -1.200000e+002 4.600000e+001 1.000000e+000
      vertex   -1.280000e+002 -4.800000e+001 1.000000e+000
    endloop
  endfacet
  facet normal 9.142368e-017 0.000000e+000 1.000000e+000
    outer loop
      vertex   -1.200000e+002 -4.800000e+001 1.000000e+000
      vertex   -1.005701e+002 -5.450000e+001 1.000000e+000
      vertex   -1.200000e+002 4.600000e+001 1.000000e+000
    endloop
  endfacet
  facet normal 0.000000e+000 -2.732857e-016 1.000000e+000
    outer loop
      vertex   -1.200000e+002 -4.800000e+001 1.000000e+000
      vertex   -1.190000e+002 -5.450000e+001 1.000000e+000
      vertex   -1.005701e+002 -5.450000e+001 1.000000e+000
    endloop
  endfacet
  facet normal -3.229740e-016 -3.229740e-016 1.000000e+000
    outer loop
      vertex   -1.200000e+002 -4.800000e+001 1.000000e+000
      vertex   -1.200000e+002 -5.350000e+001 1.000000e+000
      vertex   -1.190000e+002 -5.450000e+001 1.000000e+000
    endloop
  endfacet
  facet normal 0.000000e+000 0.000000e+000 1.000000e+000
    outer loop
      vertex   -1.190000e+002 -5.450000e+001 1.000000e+000
      vertex   -1.200000e+002 -5.350000e+001 1.000000e+000
      vertex   -1.198660e+002 -5.400000e+001 1.000000e+000
    endloop
  endfacet
  facet normal -0.000000e+000 -0.000000e+000 1.000000e+000
    outer loop
      vertex   -1.195000e+002 -5.436603e+001 1.000000e+000
      vertex   -1.190000e+002 -5.450000e+001 1.000000e+000
      vertex   -1.198660e+002 -5.400000e+001 1.000000e+000
    endloop
  endfacet
  facet normal 0.000000e+000 0.000000e+000 1.000000e+000
    outer loop
      vertex   -2.578304e+000 3.510499e+001 1.000000e+000
      vertex   -9.837157e+001 5.510961e+001 1.000000e+000
      vertex   -9.970996e+001 5.300000e+001 1.000000e+000
    endloop
  endfacet
  facet normal 0.000000e+000 -0.000000e+000 1.000000e+000
    outer loop
      vertex   -9.970996e+001 5.300000e+001 1.000000e+000
      vertex   -9.837157e+001 5.510961e+001 1.000000e+000
      vertex   -9.957599e+001 5.350000e+001 1.000000e+000
    endloop
  endfacet
  facet normal 0.000000e+000 -0.000000e+000 1.000000e+000
    outer loop
      vertex   -9.957599e+001 5.350000e+001 1.000000e+000
      vertex   -9.837157e+001 5.510961e+001 1.000000e+000
      vertex   -9.957599e+001 5.413073e+001 1.000000e+000
    endloop
  endfacet
  facet normal 0.000000e+000 -0.000000e+000 1.000000e+000
    outer loop
      vertex   -9.957599e+001 5.413073e+001 1.000000e+000
      vertex   -9.837157e+001 5.510961e+001 1.000000e+000
      vertex   -9.940569e+001 5.468894e+001 1.000000e+000
    endloop
  endfacet
  facet normal 0.000000e+000 -0.000000e+000 1.000000e+000
    outer loop
      vertex   -9.940569e+001 5.468894e+001 1.000000e+000
      vertex   -9.837157e+001 5.510961e+001 1.000000e+000
      vertex   -9.895280e+001 5.505702e+001 1.000000e+000
    endloop
  endfacet
  facet normal 0.000000e+000 2.732857e-016 1.000000e+000
    outer loop
      vertex   -1.005760e+002 5.250000e+001 1.000000e+000
      vertex   -1.190000e+002 5.250000e+001 1.000000e+000
      vertex   -1.200000e+002 4.600000e+001 1.000000e+000
    endloop
  endfacet
  facet normal -3.229740e-016 3.229740e-016 1.000000e+000
    outer loop
      vertex   -1.200000e+002 4.600000e+001 1.000000e+000
      vertex   -1.190000e+002 5.250000e+001 1.000000e+000
      vertex   -1.200000e+002 5.150000e+001 1.000000e+000
    endloop
  endfacet
  facet normal 0.000000e+000 -0.000000e+000 1.000000e+000
    outer loop
      vertex   -1.200000e+002 5.150000e+001 1.000000e+000
      vertex   -1.190000e+002 5.250000e+001 1.000000e+000
      vertex   -1.198660e+002 5.200000e+001 1.000000e+000
    endloop
  endfacet
  facet normal 0.000000e+000 -0.000000e+000 1.000000e+000
    outer loop
      vertex   -1.198660e+002 5.200000e+001 1.000000e+000
      vertex   -1.190000e+002 5.250000e+001 1.000000e+000
      vertex   -1.195000e+002 5.236603e+001 1.000000e+000
    endloop
  endfacet
  facet normal 0.000000e+000 0.000000e+000 1.000000e+000
    outer loop
      vertex   -1.200000e+002 4.600000e+001 1.000000e+000
      vertex   -1.280000e+002 4.600000e+001 1.000000e+000
      vertex   -1.280000e+002 -4.800000e+001 1.000000e+000
    endloop
  endfacet
  facet normal 0.000000e+000 0.000000e+000 1.000000e+000
    outer loop
      vertex   -2.012635e+000 -1.003302e+000 1.000000e+000
      vertex   -1.000925e+002 -5.462142e+001 1.000000e+000
      vertex   -9.807770e+001 -5.621310e+001 1.000000e+000
    endloop
  endfacet
  facet normal 0.000000e+000 0.000000e+000 1.000000e+000
    outer loop
      vertex   -9.807770e+001 -5.621310e+001 1.000000e+000
      vertex   -1.000925e+002 -5.462142e+001 1.000000e+000
      vertex   -9.973084e+001 -5.495620e+001 1.000000e+000
    endloop
  endfacet
  facet normal -0.000000e+000 -0.000000e+000 1.000000e+000
    outer loop
      vertex   -9.957302e+001 -5.542304e+001 1.000000e+000
      vertex   -9.807770e+001 -5.621310e+001 1.000000e+000
      vertex   -9.973084e+001 -5.495620e+001 1.000000e+000
    endloop
  endfacet
  facet normal 0.000000e+000 0.000000e+000 1.000000e+000
    outer loop
      vertex   -9.957302e+001 -5.542304e+001 1.000000e+000
      vertex   -9.930848e+001 -5.602687e+001 1.000000e+000
      vertex   -9.807770e+001 -5.621310e+001 1.000000e+000
    endloop
  endfacet
  facet normal 0.000000e+000 0.000000e+000 1.000000e+000
    outer loop
      vertex   -9.807770e+001 -5.621310e+001 1.000000e+000
      vertex   -9.930848e+001 -5.602687e+001 1.000000e+000
      vertex   -9.872560e+001 -5.633483e+001 1.000000e+000
    endloop
  endfacet
  facet normal 4.187221e-001 9.081144e-001 -0.000000e+000
    outer loop
      vertex   -2.578304e+000 3.510499e+001 -1.000000e+000
      vertex   -2.578304e+000 3.510499e+001 1.000000e+000
      vertex   -2.171029e+000 3.491720e+001 -1.000000e+000
    endloop
  endfacet
  facet normal 4.187221e-001 9.081144e-001 9.283133e-017
    outer loop
      vertex   -2.171029e+000 3.491720e+001 -1.000000e+000
      vertex   -2.578304e+000 3.510499e+001 1.000000e+000
      vertex   -2.171029e+000 3.491720e+001 1.000000e+000
    endloop
  endfacet
  facet normal 7.735146e-001 6.337785e-001 1.717547e-016
    outer loop
      vertex   -1.886790e+000 3.457029e+001 1.000000e+000
      vertex   -2.171029e+000 3.491720e+001 -1.000000e+000
      vertex   -2.171029e+000 3.491720e+001 1.000000e+000
    endloop
  endfacet
  facet normal 7.735146e-001 6.337785e-001 -2.165756e-015
    outer loop
      vertex   -1.886790e+000 3.457029e+001 1.000000e+000
      vertex   -1.886790e+000 3.457029e+001 -1.000000e+000
      vertex   -2.171029e+000 3.491720e+001 -1.000000e+000
    endloop
  endfacet
  facet normal 9.727240e-001 2.319658e-001 -7.117068e-016
    outer loop
      vertex   -1.886790e+000 3.457029e+001 1.000000e+000
      vertex   -1.782757e+000 3.413404e+001 -1.000000e+000
      vertex   -1.886790e+000 3.457029e+001 -1.000000e+000
    endloop
  endfacet
  facet normal 9.727240e-001 2.319658e-001 0.000000e+000
    outer loop
      vertex   -1.886790e+000 3.457029e+001 1.000000e+000
      vertex   -1.782757e+000 3.413404e+001 1.000000e+000
      vertex   -1.782757e+000 3.413404e+001 -1.000000e+000
    endloop
  endfacet
  facet normal 2.044213e-001 9.788830e-001 0.000000e+000
    outer loop
      vertex   -2.578304e+000 3.510499e+001 1.000000e+000
      vertex   -2.578304e+000 3.510499e+001 -1.000000e+000
      vertex   -9.837157e+001 5.510961e+001 1.000000e+000
    endloop
  endfacet
  facet normal 2.044213e-001 9.788830e-001 0.000000e+000
    outer loop
      vertex   -9.837157e+001 5.510961e+001 1.000000e+000
      vertex   -2.578304e+000 3.510499e+001 -1.000000e+000
      vertex   -9.837157e+001 5.510961e+001 -1.000000e+000
    endloop
  endfacet
  facet normal -0.000000e+000 0.000000e+000 -1.000000e+000
    outer loop
      vertex   -1.569653e+000 -4.739556e-001 -1.000000e+000
      vertex   -2.012635e+000 -1.003302e+000 -1.000000e+000
      vertex   -1.510950e+000 -1.283556e-001 -1.000000e+000
    endloop
  endfacet
  facet normal 0.000000e+000 0.000000e+000 -1.000000e+000
    outer loop
      vertex   -1.569653e+000 -4.739556e-001 -1.000000e+000
      vertex   -1.744024e+000 -7.780613e-001 -1.000000e+000
      vertex   -2.012635e+000 -1.003302e+000 -1.000000e+000
    endloop
  endfacet
  facet normal 4.641135e-017 -8.075577e-017 -1.000000e+000
    outer loop
      vertex   -9.807770e+001 -5.621310e+001 -1.000000e+000
      vertex   -1.000925e+002 -5.462142e+001 -1.000000e+000
      vertex   -2.012635e+000 -1.003302e+000 -1.000000e+000
    endloop
  endfacet
  facet normal 7.514566e-016 8.116930e-016 -1.000000e+000
    outer loop
      vertex   -9.807770e+001 -5.621310e+001 -1.000000e+000
      vertex   -9.973084e+001 -5.495620e+001 -1.000000e+000
      vertex   -1.000925e+002 -5.462142e+001 -1.000000e+000
    endloop
  endfacet
  facet normal 1.807833e-016 6.111453e-017 -1.000000e+000
    outer loop
      vertex   -9.807770e+001 -5.621310e+001 -1.000000e+000
      vertex   -9.957302e+001 -5.542304e+001 -1.000000e+000
      vertex   -9.973084e+001 -5.495620e+001 -1.000000e+000
    endloop
  endfacet
  facet normal 1.932201e-016 8.465333e-017 -1.000000e+000
    outer loop
      vertex   -9.807770e+001 -5.621310e+001 -1.000000e+000
      vertex   -9.930848e+001 -5.602687e+001 -1.000000e+000
      vertex   -9.957302e+001 -5.542304e+001 -1.000000e+000
    endloop
  endfacet
  facet normal 2.528141e-016 4.784936e-016 -1.000000e+000
    outer loop
      vertex   -9.807770e+001 -5.621310e+001 -1.000000e+000
      vertex   -9.872560e+001 -5.633483e+001 -1.000000e+000
      vertex   -9.930848e+001 -5.602687e+001 -1.000000e+000
    endloop
  endfacet
  facet normal -4.649238e-016 -2.577100e-020 -1.000000e+000
    outer loop
      vertex   -1.005701e+002 -5.450000e+001 -1.000000e+000
      vertex   -1.005760e+002 5.250000e+001 -1.000000e+000
      vertex   -1.000925e+002 -5.462142e+001 -1.000000e+000
    endloop
  endfacet
  facet normal 0.000000e+000 0.000000e+000 -1.000000e+000
    outer loop
      vertex   -1.005701e+002 -5.450000e+001 -1.000000e+000
      vertex   -1.200000e+002 4.600000e+001 -1.000000e+000
      vertex   -1.005760e+002 5.250000e+001 -1.000000e+000
    endloop
  endfacet
  facet normal 0.000000e+000 0.000000e+000 -1.000000e+000
    outer loop
      vertex   -1.005701e+002 -5.450000e+001 -1.000000e+000
      vertex   -1.200000e+002 -4.800000e+001 -1.000000e+000
      vertex   -1.200000e+002 4.600000e+001 -1.000000e+000
    endloop
  endfacet
  facet normal 0.000000e+000 0.000000e+000 -1.000000e+000
    outer loop
      vertex   -1.005701e+002 -5.450000e+001 -1.000000e+000
      vertex   -1.190000e+002 -5.450000e+001 -1.000000e+000
      vertex   -1.200000e+002 -4.800000e+001 -1.000000e+000
    endloop
  endfacet
  facet normal -0.000000e+000 -0.000000e+000 -1.000000e+000
    outer loop
      vertex   -1.200000e+002 -4.800000e+001 -1.000000e+000
      vertex   -1.190000e+002 -5.450000e+001 -1.000000e+000
      vertex   -1.200000e+002 -5.350000e+001 -1.000000e+000
    endloop
  endfacet
  facet normal 6.066371e-016 6.066371e-016 -1.000000e+000
    outer loop
      vertex   -1.200000e+002 -5.350000e+001 -1.000000e+000
      vertex   -1.190000e+002 -5.450000e+001 -1.000000e+000
      vertex   -1.198660e+002 -5.400000e+001 -1.000000e+000
    endloop
  endfacet
  facet normal 6.066371e-016 6.066371e-016 -1.000000e+000
    outer loop
      vertex   -1.198660e+002 -5.400000e+001 -1.000000e+000
      vertex   -1.190000e+002 -5.450000e+001 -1.000000e+000
      vertex   -1.195000e+002 -5.436603e+001 -1.000000e+000
    endloop
  endfacet
  facet normal 0.000000e+000 0.000000e+000 -1.000000e+000
    outer loop
      vertex   -1.200000e+002 -4.800000e+001 -1.000000e+000
      vertex   -1.280000e+002 -4.800000e+001 -1.000000e+000
      vertex   -1.200000e+002 4.600000e+001 -1.000000e+000
    endloop
  endfacet
  facet normal -0.000000e+000 0.000000e+000 -1.000000e+000
    outer loop
      vertex   -1.200000e+002 4.600000e+001 -1.000000e+000
      vertex   -1.280000e+002 -4.800000e+001 -1.000000e+000
      vertex   -1.280000e+002 4.600000e+001 -1.000000e+000
    endloop
  endfacet
  facet normal -0.000000e+000 0.000000e+000 -1.000000e+000
    outer loop
      vertex   -1.005760e+002 5.250000e+001 -1.000000e+000
      vertex   -1.200000e+002 4.600000e+001 -1.000000e+000
      vertex   -1.190000e+002 5.250000e+001 -1.000000e+000
    endloop
  endfacet
  facet normal -0.000000e+000 0.000000e+000 -1.000000e+000
    outer loop
      vertex   -1.190000e+002 5.250000e+001 -1.000000e+000
      vertex   -1.200000e+002 4.600000e+001 -1.000000e+000
      vertex   -1.200000e+002 5.150000e+001 -1.000000e+000
    endloop
  endfacet
  facet normal 6.066371e-016 -6.066371e-016 -1.000000e+000
    outer loop
      vertex   -1.198660e+002 5.200000e+001 -1.000000e+000
      vertex   -1.190000e+002 5.250000e+001 -1.000000e+000
      vertex   -1.200000e+002 5.150000e+001 -1.000000e+000
    endloop
  endfacet
  facet normal 6.066371e-016 -6.066371e-016 -1.000000e+000
    outer loop
      vertex   -1.198660e+002 5.200000e+001 -1.000000e+000
      vertex   -1.195000e+002 5.236603e+001 -1.000000e+000
      vertex   -1.190000e+002 5.250000e+001 -1.000000e+000
    endloop
  endfacet
  facet normal -5.547424e-019 2.070327e-018 -1.000000e+000
    outer loop
      vertex   -1.005760e+002 5.250000e+001 -1.000000e+000
      vertex   -1.000760e+002 5.263397e+001 -1.000000e+000
      vertex   -1.000925e+002 -5.462142e+001 -1.000000e+000
    endloop
  endfacet
  facet normal 1.132256e-018 2.070068e-018 -1.000000e+000
    outer loop
      vertex   -1.000925e+002 -5.462142e+001 -1.000000e+000
      vertex   -1.000760e+002 5.263397e+001 -1.000000e+000
      vertex   -2.012635e+000 -1.003302e+000 -1.000000e+000
    endloop
  endfacet
  facet normal 0.000000e+000 0.000000e+000 -1.000000e+000
    outer loop
      vertex   -2.012635e+000 -1.003302e+000 -1.000000e+000
      vertex   -1.000760e+002 5.263397e+001 -1.000000e+000
      vertex   -2.578304e+000 3.510499e+001 -1.000000e+000
    endloop
  endfacet
  facet normal 0.000000e+000 0.000000e+000 -1.000000e+000
    outer loop
      vertex   -1.510950e+000 -1.283556e-001 -1.000000e+000
      vertex   -2.578304e+000 3.510499e+001 -1.000000e+000
      vertex   -1.782757e+000 3.413404e+001 -1.000000e+000
    endloop
  endfacet
  facet normal -0.000000e+000 0.000000e+000 -1.000000e+000
    outer loop
      vertex   -1.510950e+000 -1.283556e-001 -1.000000e+000
      vertex   -2.012635e+000 -1.003302e+000 -1.000000e+000
      vertex   -2.578304e+000 3.510499e+001 -1.000000e+000
    endloop
  endfacet
  facet normal 0.000000e+000 0.000000e+000 -1.000000e+000
    outer loop
      vertex   -1.000760e+002 5.263397e+001 -1.000000e+000
      vertex   -9.970996e+001 5.300000e+001 -1.000000e+000
      vertex   -2.578304e+000 3.510499e+001 -1.000000e+000
    endloop
  endfacet
  facet normal 0.000000e+000 0.000000e+000 -1.000000e+000
    outer loop
      vertex   -2.578304e+000 3.510499e+001 -1.000000e+000
      vertex   -9.970996e+001 5.300000e+001 -1.000000e+000
      vertex   -9.837157e+001 5.510961e+001 -1.000000e+000
    endloop
  endfacet
  facet normal -0.000000e+000 0.000000e+000 -1.000000e+000
    outer loop
      vertex   -9.837157e+001 5.510961e+001 -1.000000e+000
      vertex   -9.970996e+001 5.300000e+001 -1.000000e+000
      vertex   -9.957599e+001 5.350000e+001 -1.000000e+000
    endloop
  endfacet
  facet normal 0.000000e+000 -0.000000e+000 -1.000000e+000
    outer loop
      vertex   -9.957599e+001 5.413073e+001 -1.000000e+000
      vertex   -9.837157e+001 5.510961e+001 -1.000000e+000
      vertex   -9.957599e+001 5.350000e+001 -1.000000e+000
    endloop
  endfacet
  facet normal 4.298845e-016 -5.289315e-016 -1.000000e+000
    outer loop
      vertex   -9.957599e+001 5.413073e+001 -1.000000e+000
      vertex   -9.940569e+001 5.468894e+001 -1.000000e+000
      vertex   -9.837157e+001 5.510961e+001 -1.000000e+000
    endloop
  endfacet
  facet normal 4.298845e-016 -5.289315e-016 -1.000000e+000
    outer loop
      vertex   -9.837157e+001 5.510961e+001 -1.000000e+000
      vertex   -9.940569e+001 5.468894e+001 -1.000000e+000
      vertex   -9.895280e+001 5.505702e+001 -1.000000e+000
    endloop
  endfacet
  facet normal -0.000000e+000 -0.000000e+000 -1.000000e+000
    outer loop
      vertex   -2.171029e+000 3.491720e+001 -1.000000e+000
      vertex   -1.886790e+000 3.457029e+001 -1.000000e+000
      vertex   -2.578304e+000 3.510499e+001 -1.000000e+000
    endloop
  endfacet
  facet normal 0.000000e+000 0.000000e+000 -1.000000e+000
    outer loop
      vertex   -2.578304e+000 3.510499e+001 -1.000000e+000
      vertex   -1.886790e+000 3.457029e+001 -1.000000e+000
      vertex   -1.782757e+000 3.413404e+001 -1.000000e+000
    endloop
  endfacet
  facet normal -9.564784e-001 2.918031e-001 -6.789010e-015
    outer loop
      vertex   -9.957599e+001 5.413073e+001 1.000000e+000
      vertex   -9.940569e+001 5.468894e+001 1.000000e+000
      vertex   -9.957599e+001 5.413073e+001 -1.000000e+000
    endloop
  endfacet
  facet normal -9.564784e-001 2.918031e-001 -1.036693e-015
    outer loop
      vertex   -9.957599e+001 5.413073e+001 -1.000000e+000
      vertex   -9.940569e+001 5.468894e+001 1.000000e+000
      vertex   -9.940569e+001 5.468894e+001 -1.000000e+000
    endloop
  endfacet
  facet normal -6.307054e-001 7.760223e-001 -2.756985e-015
    outer loop
      vertex   -9.940569e+001 5.468894e+001 -1.000000e+000
      vertex   -9.940569e+001 5.468894e+001 1.000000e+000
      vertex   -9.895280e+001 5.505702e+001 1.000000e+000
    endloop
  endfacet
  facet normal -9.011657e-002 9.959312e-001 0.000000e+000
    outer loop
      vertex   -9.895280e+001 5.505702e+001 -1.000000e+000
      vertex   -9.895280e+001 5.505702e+001 1.000000e+000
      vertex   -9.837157e+001 5.510961e+001 1.000000e+000
    endloop
  endfacet
  facet normal -9.011657e-002 9.959312e-001 0.000000e+000
    outer loop
      vertex   -9.837157e+001 5.510961e+001 -1.000000e+000
      vertex   -9.895280e+001 5.505702e+001 -1.000000e+000
      vertex   -9.837157e+001 5.510961e+001 1.000000e+000
    endloop
  endfacet
  facet normal -6.307054e-001 7.760223e-001 0.000000e+000
    outer loop
      vertex   -9.940569e+001 5.468894e+001 -1.000000e+000
      vertex   -9.895280e+001 5.505702e+001 1.000000e+000
      vertex   -9.895280e+001 5.505702e+001 -1.000000e+000
    endloop
  endfacet
  facet normal -1.000000e+000 0.000000e+000 -7.105427e-015
    outer loop
      vertex   -9.957599e+001 5.413073e+001 1.000000e+000
      vertex   -9.957599e+001 5.413073e+001 -1.000000e+000
      vertex   -9.957599e+001 5.350000e+001 1.000000e+000
    endloop
  endfacet
  facet normal -1.000000e+000 -0.000000e+000 -7.105427e-015
    outer loop
      vertex   -9.957599e+001 5.350000e+001 1.000000e+000
      vertex   -9.957599e+001 5.413073e+001 -1.000000e+000
      vertex   -9.957599e+001 5.350000e+001 -1.000000e+000
    endloop
  endfacet
  facet normal -2.588190e-001 9.659258e-001 0.000000e+000
    outer loop
      vertex   -1.005760e+002 5.250000e+001 -1.000000e+000
      vertex   -1.005760e+002 5.250000e+001 1.000000e+000
      vertex   -1.000760e+002 5.263397e+001 -1.000000e+000
    endloop
  endfacet
  facet normal -2.588190e-001 9.659258e-001 0.000000e+000
    outer loop
      vertex   -1.000760e+002 5.263397e+001 -1.000000e+000
      vertex   -1.005760e+002 5.250000e+001 1.000000e+000
      vertex   -1.000760e+002 5.263397e+001 1.000000e+000
    endloop
  endfacet
  facet normal -7.071068e-001 7.071068e-001 0.000000e+000
    outer loop
      vertex   -9.970996e+001 5.300000e+001 1.000000e+000
      vertex   -1.000760e+002 5.263397e+001 -1.000000e+000
      vertex   -1.000760e+002 5.263397e+001 1.000000e+000
    endloop
  endfacet
  facet normal -7.071068e-001 7.071068e-001 0.000000e+000
    outer loop
      vertex   -9.970996e+001 5.300000e+001 1.000000e+000
      vertex   -9.970996e+001 5.300000e+001 -1.000000e+000
      vertex   -1.000760e+002 5.263397e+001 -1.000000e+000
    endloop
  endfacet
  facet normal -9.659258e-001 2.588190e-001 0.000000e+000
    outer loop
      vertex   -9.970996e+001 5.300000e+001 1.000000e+000
      vertex   -9.957599e+001 5.350000e+001 -1.000000e+000
      vertex   -9.970996e+001 5.300000e+001 -1.000000e+000
    endloop
  endfacet
  facet normal -9.659258e-001 2.588190e-001 -6.863316e-015
    outer loop
      vertex   -9.970996e+001 5.300000e+001 1.000000e+000
      vertex   -9.957599e+001 5.350000e+001 1.000000e+000
      vertex   -9.957599e+001 5.350000e+001 -1.000000e+000
    endloop
  endfacet
  facet normal -2.588190e-001 9.659258e-001 0.000000e+000
    outer loop
      vertex   -1.190000e+002 5.250000e+001 1.000000e+000
      vertex   -1.190000e+002 5.250000e+001 -1.000000e+000
      vertex   -1.195000e+002 5.236603e+001 1.000000e+000
    endloop
  endfacet
  facet normal -2.588190e-001 9.659258e-001 0.000000e+000
    outer loop
      vertex   -1.195000e+002 5.236603e+001 1.000000e+000
      vertex   -1.190000e+002 5.250000e+001 -1.000000e+000
      vertex   -1.195000e+002 5.236603e+001 -1.000000e+000
    endloop
  endfacet
  facet normal -7.071068e-001 7.071068e-001 0.000000e+000
    outer loop
      vertex   -1.198660e+002 5.200000e+001 -1.000000e+000
      vertex   -1.195000e+002 5.236603e+001 1.000000e+000
      vertex   -1.195000e+002 5.236603e+001 -1.000000e+000
    endloop
  endfacet
  facet normal -7.071068e-001 7.071068e-001 0.000000e+000
    outer loop
      vertex   -1.198660e+002 5.200000e+001 -1.000000e+000
      vertex   -1.198660e+002 5.200000e+001 1.000000e+000
      vertex   -1.195000e+002 5.236603e+001 1.000000e+000
    endloop
  endfacet
  facet normal -9.659258e-001 2.588190e-001 0.000000e+000
    outer loop
      vertex   -1.198660e+002 5.200000e+001 -1.000000e+000
      vertex   -1.200000e+002 5.150000e+001 1.000000e+000
      vertex   -1.198660e+002 5.200000e+001 1.000000e+000
    endloop
  endfacet
  facet normal -9.659258e-001 2.588190e-001 0.000000e+000
    outer loop
      vertex   -1.198660e+002 5.200000e+001 -1.000000e+000
      vertex   -1.200000e+002 5.150000e+001 -1.000000e+000
      vertex   -1.200000e+002 5.150000e+001 1.000000e+000
    endloop
  endfacet
  facet normal -2.463968e-001 -9.691690e-001 -0.000000e+000
    outer loop
      vertex   -1.005701e+002 -5.450000e+001 1.000000e+000
      vertex   -1.005701e+002 -5.450000e+001 -1.000000e+000
      vertex   -1.000925e+002 -5.462142e+001 1.000000e+000
    endloop
  endfacet
  facet normal -2.463968e-001 -9.691690e-001 0.000000e+000
    outer loop
      vertex   -1.000925e+002 -5.462142e+001 1.000000e+000
      vertex   -1.005701e+002 -5.450000e+001 -1.000000e+000
      vertex   -1.000925e+002 -5.462142e+001 -1.000000e+000
    endloop
  endfacet
  facet normal -6.793540e-001 -7.338107e-001 -0.000000e+000
    outer loop
      vertex   -9.973084e+001 -5.495620e+001 -1.000000e+000
      vertex   -1.000925e+002 -5.462142e+001 1.000000e+000
      vertex   -1.000925e+002 -5.462142e+001 -1.000000e+000
    endloop
  endfacet
  facet normal -6.793540e-001 -7.338107e-001 0.000000e+000
    outer loop
      vertex   -9.973084e+001 -5.495620e+001 -1.000000e+000
      vertex   -9.973084e+001 -5.495620e+001 1.000000e+000
      vertex   -1.000925e+002 -5.462142e+001 1.000000e+000
    endloop
  endfacet
  facet normal -9.473331e-001 -3.202498e-001 0.000000e+000
    outer loop
      vertex   -9.973084e+001 -5.495620e+001 -1.000000e+000
      vertex   -9.957302e+001 -5.542304e+001 1.000000e+000
      vertex   -9.973084e+001 -5.495620e+001 1.000000e+000
    endloop
  endfacet
  facet normal -9.473331e-001 -3.202498e-001 0.000000e+000
    outer loop
      vertex   -9.973084e+001 -5.495620e+001 -1.000000e+000
      vertex   -9.957302e+001 -5.542304e+001 -1.000000e+000
      vertex   -9.957302e+001 -5.542304e+001 1.000000e+000
    endloop
  endfacet
  facet normal -0.000000e+000 -1.000000e+000 0.000000e+000
    outer loop
      vertex   -1.005701e+002 -5.450000e+001 -1.000000e+000
      vertex   -1.005701e+002 -5.450000e+001 1.000000e+000
      vertex   -1.190000e+002 -5.450000e+001 -1.000000e+000
    endloop
  endfacet
  facet normal 0.000000e+000 -1.000000e+000 0.000000e+000
    outer loop
      vertex   -1.190000e+002 -5.450000e+001 -1.000000e+000
      vertex   -1.005701e+002 -5.450000e+001 1.000000e+000
      vertex   -1.190000e+002 -5.450000e+001 1.000000e+000
    endloop
  endfacet
  facet normal -9.159492e-001 -4.012943e-001 0.000000e+000
    outer loop
      vertex   -9.957302e+001 -5.542304e+001 -1.000000e+000
      vertex   -9.930848e+001 -5.602687e+001 -1.000000e+000
      vertex   -9.957302e+001 -5.542304e+001 1.000000e+000
    endloop
  endfacet
  facet normal -9.159492e-001 -4.012943e-001 0.000000e+000
    outer loop
      vertex   -9.957302e+001 -5.542304e+001 1.000000e+000
      vertex   -9.930848e+001 -5.602687e+001 -1.000000e+000
      vertex   -9.930848e+001 -5.602687e+001 1.000000e+000
    endloop
  endfacet
  facet normal -4.671572e-001 -8.841743e-001 -0.000000e+000
    outer loop
      vertex   -9.930848e+001 -5.602687e+001 1.000000e+000
      vertex   -9.930848e+001 -5.602687e+001 -1.000000e+000
      vertex   -9.872560e+001 -5.633483e+001 -1.000000e+000
    endloop
  endfacet
  facet normal 1.846554e-001 -9.828033e-001 0.000000e+000
    outer loop
      vertex   -9.872560e+001 -5.633483e+001 1.000000e+000
      vertex   -9.872560e+001 -5.633483e+001 -1.000000e+000
      vertex   -9.807770e+001 -5.621310e+001 -1.000000e+000
    endloop
  endfacet
  facet normal 1.846554e-001 -9.828033e-001 0.000000e+000
    outer loop
      vertex   -9.807770e+001 -5.621310e+001 1.000000e+000
      vertex   -9.872560e+001 -5.633483e+001 1.000000e+000
      vertex   -9.807770e+001 -5.621310e+001 -1.000000e+000
    endloop
  endfacet
  facet normal -4.671572e-001 -8.841743e-001 0.000000e+000
    outer loop
      vertex   -9.930848e+001 -5.602687e+001 1.000000e+000
      vertex   -9.872560e+001 -5.633483e+001 -1.000000e+000
      vertex   -9.872560e+001 -5.633483e+001 1.000000e+000
    endloop
  endfacet
  facet normal -2.588190e-001 -9.659258e-001 0.000000e+000
    outer loop
      vertex   -1.190000e+002 -5.450000e+001 -1.000000e+000
      vertex   -1.190000e+002 -5.450000e+001 1.000000e+000
      vertex   -1.195000e+002 -5.436603e+001 -1.000000e+000
    endloop
  endfacet
  facet normal -2.588190e-001 -9.659258e-001 0.000000e+000
    outer loop
      vertex   -1.195000e+002 -5.436603e+001 -1.000000e+000
      vertex   -1.190000e+002 -5.450000e+001 1.000000e+000
      vertex   -1.195000e+002 -5.436603e+001 1.000000e+000
    endloop
  endfacet
  facet normal -7.071068e-001 -7.071068e-001 0.000000e+000
    outer loop
      vertex   -1.198660e+002 -5.400000e+001 1.000000e+000
      vertex   -1.195000e+002 -5.436603e+001 -1.000000e+000
      vertex   -1.195000e+002 -5.436603e+001 1.000000e+000
    endloop
  endfacet
  facet normal -7.071068e-001 -7.071068e-001 -0.000000e+000
    outer loop
      vertex   -1.198660e+002 -5.400000e+001 1.000000e+000
      vertex   -1.198660e+002 -5.400000e+001 -1.000000e+000
      vertex   -1.195000e+002 -5.436603e+001 -1.000000e+000
    endloop
  endfacet
  facet normal -9.659258e-001 -2.588190e-001 0.000000e+000
    outer loop
      vertex   -1.198660e+002 -5.400000e+001 1.000000e+000
      vertex   -1.200000e+002 -5.350000e+001 -1.000000e+000
      vertex   -1.198660e+002 -5.400000e+001 -1.000000e+000
    endloop
  endfacet
  facet normal -9.659258e-001 -2.588190e-001 -0.000000e+000
    outer loop
      vertex   -1.198660e+002 -5.400000e+001 1.000000e+000
      vertex   -1.200000e+002 -5.350000e+001 1.000000e+000
      vertex   -1.200000e+002 -5.350000e+001 -1.000000e+000
    endloop
  endfacet
  facet normal 9.999685e-001 7.932842e-003 0.000000e+000
    outer loop
      vertex   -1.510950e+000 -1.283556e-001 1.000000e+000
      vertex   -1.510950e+000 -1.283556e-001 -1.000000e+000
      vertex   -1.782757e+000 3.413404e+001 1.000000e+000
    endloop
  endfacet
  facet normal 9.999685e-001 7.932842e-003 0.000000e+000
    outer loop
      vertex   -1.782757e+000 3.413404e+001 1.000000e+000
      vertex   -1.510950e+000 -1.283556e-001 -1.000000e+000
      vertex   -1.782757e+000 3.413404e+001 -1.000000e+000
    endloop
  endfacet
  facet normal 0.000000e+000 1.000000e+000 0.000000e+000
    outer loop
      vertex   -1.005760e+002 5.250000e+001 1.000000e+000
      vertex   -1.005760e+002 5.250000e+001 -1.000000e+000
      vertex   -1.190000e+002 5.250000e+001 1.000000e+000
    endloop
  endfacet
  facet normal 0.000000e+000 1.000000e+000 0.000000e+000
    outer loop
      vertex   -1.190000e+002 5.250000e+001 1.000000e+000
      vertex   -1.005760e+002 5.250000e+001 -1.000000e+000
      vertex   -1.190000e+002 5.250000e+001 -1.000000e+000
    endloop
  endfacet
endsolid